<svg width="660" height="660" viewBox="0 0 660 660" fill="none" xmlns="http://www.w3.org/2000/svg">
<path d="M527.511 273.7C528.451 272.03 529.371 270.34 530.271 268.63C556.991 217.46 554.891 160.98 528.651 126.82C526.37 123.85 523.468 121.412 520.149 119.678C516.829 117.944 513.172 116.955 509.431 116.78C474.031 115.13 435.571 135.54 408.171 171.33C383.781 161.61 357.461 156.08 330.001 156.08C302.541 156.08 276.221 161.61 251.831 171.33C224.431 135.54 185.971 115.13 150.571 116.78C143.011 117.13 135.961 120.81 131.351 126.82C105.111 160.98 103.021 217.46 129.731 268.63C130.631 270.35 131.551 272.04 132.491 273.7C112.881 306.16 101.641 341.89 101.641 376.18C101.641 479.62 203.881 530.67 330.001 530.67C456.121 530.67 558.371 479.62 558.371 376.18C558.371 341.9 547.131 306.16 527.521 273.7H527.511Z" fill="#222E33"/>
<path d="M208.531 194.16C194.161 203.74 180.881 214.8 168.901 226.94C160.551 235.41 146.081 231.25 143.571 219.62C137.581 191.89 141.011 164.81 153.951 146.68H154.581C173.261 146.68 192.911 155.42 209.991 170.29C217.491 176.82 216.801 188.65 208.531 194.16ZM491.101 226.95C479.131 214.81 465.841 203.75 451.471 194.17C443.201 188.65 442.511 176.83 450.011 170.3C467.091 155.44 486.741 146.69 505.421 146.69H506.051C518.991 164.82 522.411 191.9 516.431 219.63C513.921 231.26 499.451 235.43 491.101 226.95Z" fill="#3F5C6C"/>
<path d="M522.874 531.005L478.156 468.543C475.67 465.072 470.842 464.272 467.37 466.758C463.899 469.243 463.1 474.071 465.585 477.543L510.304 540.005C512.789 543.476 517.618 544.276 521.089 541.791C524.56 539.305 525.359 534.477 522.874 531.005Z" fill="#DBDDDD"/>
<path d="M562.329 492.991L501.408 446.194C498.022 443.594 493.17 444.23 490.569 447.616C487.968 451.001 488.605 455.854 491.99 458.455L552.911 505.252C556.297 507.852 561.149 507.216 563.75 503.83C566.351 500.445 565.715 495.592 562.329 492.991Z" fill="#DBDDDD"/>
<path d="M149.842 540.072L194.561 477.61C197.046 474.138 196.247 469.31 192.775 466.825C189.304 464.339 184.475 465.139 181.99 468.61L137.272 531.073C134.786 534.544 135.586 539.372 139.057 541.858C142.528 544.343 147.357 543.543 149.842 540.072Z" fill="#DBDDDD"/>
<path d="M106.891 505.423L167.812 458.626C171.198 456.025 171.834 451.173 169.233 447.787C166.633 444.401 161.78 443.765 158.394 446.366L97.4734 493.163C94.0878 495.763 93.4515 500.616 96.0522 504.002C98.6529 507.387 103.506 508.024 106.891 505.423Z" fill="#DBDDDD"/>
<path d="M310.361 464.7C293.681 464.7 280.101 451.13 280.101 434.44C280.101 428.92 284.581 424.44 290.101 424.44C295.621 424.44 300.101 428.92 300.101 434.44C300.101 439.96 304.701 444.7 310.361 444.7C316.021 444.7 320.621 440.1 320.621 434.44C320.621 428.78 325.101 424.44 330.621 424.44C336.141 424.44 340.621 428.92 340.621 434.44C340.621 451.12 327.051 464.7 310.361 464.7Z" fill="#7ED09E"/>
<path d="M350.881 464.7C334.201 464.7 320.621 451.13 320.621 434.44C320.621 428.92 325.101 424.44 330.621 424.44C336.141 424.44 340.621 428.92 340.621 434.44C340.621 439.96 345.221 444.7 350.881 444.7C356.541 444.7 361.141 440.1 361.141 434.44C361.141 428.78 365.621 424.44 371.141 424.44C376.661 424.44 381.141 428.92 381.141 434.44C381.141 451.12 367.571 464.7 350.881 464.7ZM242.651 385.62C242.651 414.34 227.241 425.97 208.241 425.97C189.241 425.97 173.831 414.34 173.831 385.62C173.831 356.9 189.241 321.97 208.241 321.97C227.241 321.97 242.651 356.9 242.651 385.62ZM486.171 385.62C486.171 414.34 470.761 425.97 451.761 425.97C432.761 425.97 417.351 414.34 417.351 385.62C417.351 356.9 432.761 321.97 451.761 321.97C470.761 321.97 486.171 356.9 486.171 385.62Z" fill="#7ED09E"/>
</svg>
